<svg fill="none" height="220" viewBox="0 0 180 220" width="180" xmlns="http://www.w3.org/2000/svg" xmlns:xlink="http://www.w3.org/1999/xlink"><linearGradient id="a"><stop offset="0" stop-color="#38a6e2"/><stop offset=".494792" stop-color="#665bc8"/><stop offset=".942708" stop-color="#8825b5"/></linearGradient><linearGradient id="b" gradientUnits="userSpaceOnUse" x1="115.191" x2="83.8911" xlink:href="#a" y1="22.0855" y2="35.4862"/><linearGradient id="c"><stop offset=".0520833" stop-color="#822db8"/><stop offset=".666667" stop-color="#ca446e"/><stop offset=".973958" stop-color="#f19c55"/></linearGradient><linearGradient id="d" gradientUnits="userSpaceOnUse" x1="82.2742" x2="95.8611" xlink:href="#c" y1="162.768" y2="199.661"/><linearGradient id="e" gradientUnits="userSpaceOnUse" x1="70.253" x2="75.3382" xlink:href="#c" y1="49.4544" y2="90.7708"/><linearGradient id="f" gradientUnits="userSpaceOnUse" x1="87.8139" x2="129.604" y1="130.345" y2="90.7173"><stop offset="0" stop-color="#1bd0e8"/><stop offset=".302083" stop-color="#4b7fdb"/><stop offset=".4375" stop-color="#595cce"/><stop offset=".583333" stop-color="#7d4dbd"/><stop offset=".651042" stop-color="#934cb3"/><stop offset=".786458" stop-color="#c54da1"/><stop offset=".947917" stop-color="#e55e4e"/><stop offset="1" stop-color="#e86f4e"/></linearGradient><linearGradient id="g" gradientUnits="userSpaceOnUse" x1="94.907" x2="52.9004" xlink:href="#a" y1="51.3076" y2="105.113"/><linearGradient id="h" gradientUnits="userSpaceOnUse" x1="148.226" x2="120.203" xlink:href="#a" y1="167.283" y2="203.199"/><linearGradient id="i" gradientUnits="userSpaceOnUse" x1="168.703" x2="126.698" xlink:href="#a" y1="93.2871" y2="147.099"/><linearGradient id="j" gradientUnits="userSpaceOnUse" x1="-3.40815" x2="1.67708" xlink:href="#c" y1="91.7493" y2="133.066"/><path d="m0 0h180v220h-180z"/><path d="m88.9377 28.5156.2028-.1127 24.3585-13.734-24.5613-14.004349h-.0113l-24.5612 13.835349 24.5612 14.0157z" fill="#4122ff"/><path d="m65.5026 16.4379 22.3192 12.7312v25.2597l-22.3192-12.7312zm-1.1266-1.9379v27.851l24.5612 14.0044v-27.8398l-24.5612-14.0043z" fill="#4122ff"/><path d="m113.51 14.6689-24.5612 13.8467h-.0113v27.851h.0113l24.5612-13.8354v-.0112z" fill="url(#b)"/><path d="m88.8479 171.049.2028-.124 24.3583-13.722-24.5724-14.016-24.5612 13.847 24.5612 14.015z" fill="#4122ff"/><path d="m65.4133 158.971 22.3192 12.732v25.248l-22.3192-12.72zm-1.1266-1.938v27.851l24.5612 14.005v-27.84l-24.5725-14.016z" fill="#ffe85e"/><path d="m113.419 157.203-24.5723 13.846v27.851h.0112l24.5611-13.846z" fill="url(#d)"/><path d="m138.973 43.8831-49.0326 27.896 24.5616 13.8467h.011l49.032-27.8961z" fill="url(#e)"/><path d="m162.407 59.6676v25.2597l-23.998 13.6776-22.792 12.9341v-25.2597zm1.127-1.9379-49.044 27.8961v27.8512l24.471-13.8919 24.561-14.0044v-27.851z" fill="#ffe85e"/><path d="m89.9287 71.7793 24.5723 13.8466v27.8511h-.011l-24.5613-13.8467z" fill="url(#f)"/><path d="m40.8404 43.8831-24.5611 13.8466 49.0322 27.8961.2141-.1127 24.3471-13.734z" fill="url(#g)"/><path d="m17.4172 59.6563 22.781 12.9341 23.9979 13.6889v25.2597l-22.781-13.0017c-.1059-.0578-.2198-.0996-.338-.1239l-23.6599-13.5199zm-1.1266-1.9266v27.851l24.5612 14.0044v-.0676l24.4597 13.9595v-27.8512l-24.5612-14.0156-24.471-13.8805z" fill="#4122ff"/><path d="m89.8947 71.7793-24.5724 13.8466v27.8511l24.5724-13.8467v.0113-.0113z" fill="#4122ff"/><path d="m120.304 190.18.203-.113 24.358-13.734-24.561-14.004h-.011l-24.5616 13.835 24.5616 14.016z" fill="url(#h)"/><path d="m120.315 218.031v-27.851l-24.5728-14.016v27.851l.0112.012z" fill="#4122ff"/><path d="m143.749 178.26v25.271l-22.319 12.573v-25.271zm1.127-1.927-24.572 13.836v27.851l24.561-13.847v-27.84z" fill="#4122ff"/><g stroke-linecap="round" stroke-linejoin="round"><path d="m141.349 73.9875-23.446 13.2158-2.602 1.4646" stroke="#ffe85e"/><path d="m162.778 61.9436-23.457 13.2157" stroke="#ffe85e"/><path d="m141.35 77.4209-23.446 13.2157-2.49 1.3745" stroke="#ffe85e"/><path d="m162.779 65.3752-23.457 13.2158" stroke="#ffe85e"/><path d="m141.35 80.7661-23.446 13.2157-2.456 1.3633" stroke="#ffe85e"/><path d="m162.779 68.7183-23.457 13.2157" stroke="#ffe85e"/><path d="m141.35 84.1021-23.446 13.2157-2.49 1.3069" stroke="#ffe85e"/><path d="m162.779 72.0522v.0113zm0 0-23.457 13.2158" stroke="#ffe85e"/><path d="m141.35 87.3721v.0112zm0 0-26.15 14.6579" stroke="#ffe85e"/><path d="m162.779 75.3318-23.457 13.2157" stroke="#ffe85e"/><path d="m141.35 90.7793-25.936 14.6357" stroke="#ffe85e"/><path d="m162.779 78.7371-23.457 13.2157" stroke="#ffe85e"/><path d="m141.349 94.1655-26.116 14.7255" stroke="#ffe85e"/><path d="m162.778 82.1216-23.457 13.2157" stroke="#ffe85e"/><path d="m143.67 181.133-22.184 12.494" stroke="#4122ff"/><path d="m143.67 184.411-22.184 12.495" stroke="#4122ff"/><path d="m143.67 187.69-22.184 12.495" stroke="#4122ff"/><path d="m143.67 190.969-22.184 12.494" stroke="#4122ff"/><path d="m143.67 194.247-22.184 12.495" stroke="#4122ff"/><path d="m143.67 197.526-22.184 12.494" stroke="#4122ff"/><path d="m143.67 200.804-22.184 12.495" stroke="#4122ff"/><path d="m64.9961 161.236 22.8148 12.855" stroke="#ffe85e"/><path d="m64.9961 164.616 22.8148 12.855" stroke="#ffe85e"/><path d="m64.9961 167.985 22.8148 12.855" stroke="#ffe85e"/><path d="m64.9961 171.353 22.8148 12.855" stroke="#ffe85e"/><path d="m64.9961 174.733 22.8148 12.844v.012" stroke="#ffe85e"/><path d="m64.9961 178.102 22.8148 12.855" stroke="#ffe85e"/><path d="m64.9961 181.471 22.8148 12.855" stroke="#ffe85e"/><path d="m17.0117 61.8083 47.3197 26.6568" stroke="#4122ff"/><path d="m17.1689 65.0869 44.6608 25.1696h.0113" stroke="#4122ff"/><path d="m17.1689 68.7373v-.0112l40.7175 22.95.0113.0113" stroke="#4122ff"/><path d="m17.1689 72.0383 37.991 21.4065" stroke="#4122ff"/><path d="m17.1689 75.5874 34.3744 19.3673" stroke="#4122ff"/><path d="m17.1689 79.0801 30.9832 17.4519v.0113" stroke="#4122ff"/><path d="m17.1689 82.4487 28.0201 15.7845h.0112" stroke="#4122ff"/><path d="m65.0303 18.4771 22.8261 12.8664h.0112" stroke="#4122ff"/><path d="m65.0303 21.9133 22.8261 12.8665h.0112" stroke="#4122ff"/><path d="m65.0303 25.3384 22.8261 12.8664.0112.0113" stroke="#4122ff"/><path d="m65.0303 28.7747 22.8261 12.8664h.0112" stroke="#4122ff"/><path d="m65.0303 32.2109 22.8261 12.8552.0112.0113" stroke="#4122ff"/><path d="m65.0303 35.636 22.8261 12.8664h.0112" stroke="#4122ff"/><path d="m65.0303 39.0723 22.8261 12.8664h.0112" stroke="#4122ff"/></g><path d="m139.107 99.743-24.471-13.8805-24.5725 13.8467 24.5725 14.0048v.011-.011.011l.067-.034 24.404 13.914.203-.112 24.358-13.734z" fill="url(#i)"/><path d="m90.0977 99.6528v27.8512l.0112.011 24.5611 14.004 24.471 13.881v-27.851z" fill="#4122ff"/><path d="m162.632 115.651v25.271l-22.319 12.585v-25.271zm1.127-1.926-24.572 13.846v27.852l24.561-13.847v-27.851z" fill="#ffe85e"/><path d="m162.756 118.203-22.567 12.72" stroke="#ffe85e" stroke-linecap="round" stroke-linejoin="round"/><path d="m162.756 121.538-22.567 12.72" stroke="#ffe85e" stroke-linecap="round" stroke-linejoin="round"/><path d="m162.756 124.873-22.567 12.72" stroke="#ffe85e" stroke-linecap="round" stroke-linejoin="round"/><path d="m162.756 128.219v-.011l-22.567 12.72" stroke="#ffe85e" stroke-linecap="round" stroke-linejoin="round"/><path d="m162.756 131.554-22.567 12.709v.011" stroke="#ffe85e" stroke-linecap="round" stroke-linejoin="round"/><path d="m162.756 134.889-22.567 12.72" stroke="#ffe85e" stroke-linecap="round" stroke-linejoin="round"/><path d="m162.756 138.224-22.567 12.72" stroke="#ffe85e" stroke-linecap="round" stroke-linejoin="round"/><path d="m90.0085 99.7205-24.5612 14.0045v27.851l24.5499-14.005v-27.8505z" fill="#4122ff"/><path d="m40.9424 155.558v-27.851l24.5724-14.016v27.851l-.0113.011z" fill="#4122ff"/><path d="m17.5068 115.775 22.3192 12.529v25.282l-22.3192-12.585zm-1.1267-1.926v27.851l24.5613 13.835v-27.84l-24.5723-13.846z" fill="#4122ff"/><path d="m17.1689 118.344 22.8487 12.878h.0113" stroke="#4122ff" stroke-linecap="round" stroke-linejoin="round"/><path d="m17.1689 121.713v.011zm0 0 22.8487 12.889h.0113" stroke="#4122ff" stroke-linecap="round" stroke-linejoin="round"/><path d="m17.1689 125.093 22.8487 12.889h.0113" stroke="#4122ff" stroke-linecap="round" stroke-linejoin="round"/><path d="m17.1689 128.473 22.8487 12.889h.0113" stroke="#4122ff" stroke-linecap="round" stroke-linejoin="round"/><path d="m17.1689 131.853 22.8487 12.878.0113.011" stroke="#4122ff" stroke-linecap="round" stroke-linejoin="round"/><path d="m17.1689 135.233 22.8487 12.877.0113.012" stroke="#4122ff" stroke-linecap="round" stroke-linejoin="round"/><path d="m17.1689 138.613 22.8487 12.878h.0113" stroke="#4122ff" stroke-linecap="round" stroke-linejoin="round"/><path d="m65.3115 86.178-49.0322 27.896 24.5611 13.847h.0113l49.0322-27.896z" fill="url(#j)"/></svg>
