<svg width="180" height="220" viewBox="0 0 180 220" fill="none" xmlns="http://www.w3.org/2000/svg">
<g clip-path="url(#clip0_430_158)">
<path d="M89.6164 173.585V173.596L89.8192 173.472L114.178 159.738L89.6164 145.734H89.6052L65.0439 159.58L89.6052 173.585H89.6164Z" fill="#4122FF"/>
<path d="M66.1813 161.518L88.5002 174.227V199.487L66.1813 186.767V161.518ZM65.0547 159.58V187.431L89.6156 201.436V173.585L65.0547 159.58Z" fill="#4122FF"/>
<path d="M114.189 159.738L89.6162 173.584V201.435L89.6275 201.447L114.189 187.6V159.738Z" fill="url(#paint0_linear_430_158)"/>
<path d="M86.5736 198.179L86.4609 172.661" stroke="#4122FF" stroke-linecap="round" stroke-linejoin="round" stroke-dasharray="0.2 2"/>
<path d="M84.2987 196.907L84.1748 171.388" stroke="#4122FF" stroke-linecap="round" stroke-linejoin="round"/>
<path d="M82.0111 195.814L81.8984 170.295" stroke="#4122FF" stroke-linecap="round" stroke-linejoin="round" stroke-dasharray="0.2 2"/>
<path d="M79.7352 194.338L79.6113 168.83V168.819" stroke="#4122FF" stroke-linecap="round" stroke-linejoin="round"/>
<path d="M77.4486 193.087L77.3359 167.568" stroke="#4122FF" stroke-linecap="round" stroke-linejoin="round" stroke-dasharray="0.2 2"/>
<path d="M75.1723 191.915L75.0596 166.396" stroke="#4122FF" stroke-linecap="round" stroke-linejoin="round"/>
<path d="M72.8964 190.687V190.676H72.8851L72.7725 165.168V165.157" stroke="#4122FF" stroke-linecap="round" stroke-linejoin="round" stroke-dasharray="0.2 2"/>
<path d="M70.6087 189.211V189.2L70.4961 163.692" stroke="#4122FF" stroke-linecap="round" stroke-linejoin="round"/>
<path d="M68.3339 187.949L68.21 162.431" stroke="#4122FF" stroke-linecap="round" stroke-linejoin="round" stroke-dasharray="0.2 2"/>
<path d="M92.3545 78.4382V75.0583L92.4784 47.6692" stroke="#FFE85E" stroke-linecap="round" stroke-linejoin="round" stroke-dasharray="0.2 2"/>
<path d="M94.6406 77.5257V74.0669L94.7645 46.0469" stroke="#FFE85E" stroke-linecap="round" stroke-linejoin="round"/>
<path d="M97.2549 75.9033V72.5233L97.3788 45.1455V45.1343" stroke="#FFE85E" stroke-linecap="round" stroke-linejoin="round" stroke-dasharray="0.2 2"/>
<path d="M99.6436 71.239V74.6978L99.7787 43.2303L99.7675 43.219" stroke="#FFE85E" stroke-linecap="round" stroke-linejoin="round"/>
<path d="M102.145 72.9738L102.268 42.2047" stroke="#FFE85E" stroke-linecap="round" stroke-linejoin="round" stroke-dasharray="0.2 2"/>
<path d="M104.657 72.0389V68.5801L104.781 40.5601" stroke="#FFE85E" stroke-linecap="round" stroke-linejoin="round"/>
<path d="M107.046 70.394L107.17 39.625" stroke="#FFE85E" stroke-linecap="round" stroke-linejoin="round" stroke-dasharray="0.2 2"/>
<path d="M109.659 69.0645V65.6057L109.794 37.5857" stroke="#FFE85E" stroke-linecap="round" stroke-linejoin="round"/>
<path d="M111.936 67.4646V64.0846L112.059 36.6956" stroke="#FFE85E" stroke-linecap="round" stroke-linejoin="round" stroke-dasharray="0.2 2"/>
<path d="M92.1846 158.904L92.3085 131.515V110.109" stroke="#FFE85E" stroke-linecap="round" stroke-linejoin="round" stroke-dasharray="0.2 2"/>
<path d="M94.6868 158.544V158.037V130.31L94.5967 110.908" stroke="#FFE85E" stroke-linecap="round" stroke-linejoin="round"/>
<path d="M97.0859 156.369L97.2099 128.98V112.08" stroke="#FFE85E" stroke-linecap="round" stroke-linejoin="round" stroke-dasharray="0.2 2"/>
<path d="M99.5312 155.254V155.873L99.6553 127.549V113.872" stroke="#FFE85E" stroke-linecap="round" stroke-linejoin="round"/>
<path d="M101.976 153.44L102.1 114.784" stroke="#FFE85E" stroke-linecap="round" stroke-linejoin="round" stroke-dasharray="0.2 2"/>
<path d="M104.421 153.158V152.584V152.595L104.556 124.541V116.463" stroke="#FFE85E" stroke-linecap="round" stroke-linejoin="round"/>
<path d="M106.876 150.86L107 117.939" stroke="#FFE85E" stroke-linecap="round" stroke-linejoin="round" stroke-dasharray="0.2 2"/>
<path d="M109.411 150.049L109.535 119.268" stroke="#FFE85E" stroke-linecap="round" stroke-linejoin="round"/>
<path d="M111.766 147.931L111.89 120.542" stroke="#FFE85E" stroke-linecap="round" stroke-linejoin="round" stroke-dasharray="0.2 2"/>
<path d="M64.9992 61.7863L65.1344 147.559L89.7407 162.262L89.5379 47.7143L89.335 47.5904L64.9316 33.0227L64.9992 61.7863Z" fill="url(#paint1_linear_430_158)"/>
<path d="M112.983 35.6478L113.073 90.978C113.067 91.0229 113.067 91.0683 113.073 91.1132V119.528C113.056 119.624 113.056 119.724 113.073 119.821V147.604L90.7537 160.358V133.735C90.7655 133.641 90.7655 133.547 90.7537 133.453V105.027C90.7537 105.027 90.7537 104.949 90.7537 104.904V76.4779C90.7654 76.3806 90.7654 76.2823 90.7537 76.185V48.4016L112.983 35.6478ZM114.109 33.71L89.5371 47.7481V76.5005V105.061V133.791V162.352L114.109 148.314V119.584V91.0344L114.019 33.7663L114.109 33.71Z" fill="#FFE85E"/>
<path d="M64.9316 33.0113L89.5266 47.703L89.5379 47.7142L114.11 33.6648V33.6535L89.5041 18.9619L64.9316 33.0113Z" fill="#4122FF"/>
<path d="M114.2 94.1213L113.997 94.0086L89.6387 80.2746L114.2 66.2703L138.772 80.1169L114.2 94.1213Z" fill="url(#paint2_linear_430_158)"/>
<path d="M137.635 82.0548V107.314L115.372 120.034V94.7748L137.691 82.0548H137.635ZM138.818 80.1169L114.245 94.1213V121.972L138.806 107.968V80.1169H138.818Z" fill="#FFE85E"/>
<path d="M89.6279 80.2747L114.189 94.1213H114.2V121.972L114.189 121.984L89.6279 108.137V80.2747Z" fill="#4122FF"/>
<path d="M65.111 94.1213H65.1222L65.325 94.0086L89.6722 80.2746L65.111 66.2703L40.5498 80.1169L65.111 94.1213Z" fill="#4122FF"/>
<path d="M41.6887 82.0548L63.9963 94.7748V120.034L41.6887 107.314V82.0548ZM40.5621 80.1169V107.968L65.1117 121.972V94.1213L40.5508 80.1169H40.5621Z" fill="#4122FF"/>
<path d="M89.6955 80.2747L65.123 94.1213V121.972V121.984L89.6955 108.137V80.2747Z" fill="url(#paint3_linear_430_158)"/>
<path d="M117.67 119.043L117.783 93.1074" stroke="#FFE85E" stroke-linecap="round" stroke-linejoin="round" stroke-dasharray="0.2 2"/>
<path d="M119.979 117.759V117.747L119.991 117.759L120.103 91.823V91.8118" stroke="#FFE85E" stroke-linecap="round" stroke-linejoin="round"/>
<path d="M122.301 116.643L122.425 90.7075" stroke="#FFE85E" stroke-linecap="round" stroke-linejoin="round" stroke-dasharray="0.2 2"/>
<path d="M124.621 115.145L124.734 89.209" stroke="#FFE85E" stroke-linecap="round" stroke-linejoin="round"/>
<path d="M126.942 113.86V113.872L127.055 87.9358V87.9246" stroke="#FFE85E" stroke-linecap="round" stroke-linejoin="round" stroke-dasharray="0.2 2"/>
<path d="M129.252 112.677H129.263L129.376 86.7417V86.7305" stroke="#FFE85E" stroke-linecap="round" stroke-linejoin="round"/>
<path d="M131.572 111.427L131.696 85.4912V85.48" stroke="#FFE85E" stroke-linecap="round" stroke-linejoin="round" stroke-dasharray="0.2 2"/>
<path d="M133.895 109.928L134.018 83.9927V83.9814" stroke="#FFE85E" stroke-linecap="round" stroke-linejoin="round"/>
<path d="M136.215 108.644L136.327 82.7083" stroke="#FFE85E" stroke-linecap="round" stroke-linejoin="round" stroke-dasharray="0.2 2"/>
<path d="M62.035 118.863H62.0238L61.9111 93.4229" stroke="#4122FF" stroke-linecap="round" stroke-linejoin="round" stroke-dasharray="0.2 2"/>
<path d="M59.7597 117.601L59.6357 92.1609" stroke="#4122FF" stroke-linecap="round" stroke-linejoin="round"/>
<path d="M57.4838 116.508L57.3711 91.0681" stroke="#4122FF" stroke-linecap="round" stroke-linejoin="round" stroke-dasharray="0.2 2"/>
<path d="M55.2074 115.043L55.0947 89.6033V89.592" stroke="#4122FF" stroke-linecap="round" stroke-linejoin="round"/>
<path d="M52.932 113.782L52.8193 88.3528V88.3416" stroke="#4122FF" stroke-linecap="round" stroke-linejoin="round" stroke-dasharray="0.2 2"/>
<path d="M50.6557 112.61L50.543 87.1812V87.1699" stroke="#4122FF" stroke-linecap="round" stroke-linejoin="round"/>
<path d="M48.3915 111.393L48.2676 85.9529V85.9417" stroke="#4122FF" stroke-linecap="round" stroke-linejoin="round" stroke-dasharray="0.2 2"/>
<path d="M46.1151 109.917L45.9912 84.4771" stroke="#4122FF" stroke-linecap="round" stroke-linejoin="round"/>
<path d="M43.8402 108.667L43.7275 83.2266" stroke="#4122FF" stroke-linecap="round" stroke-linejoin="round" stroke-dasharray="0.2 2"/>
<path d="M35.7394 114.413L35.9535 114.3L60.3006 100.566L35.7394 86.5615L11.167 100.408L35.7394 114.413Z" fill="url(#paint4_linear_430_158)"/>
<path d="M12.3049 102.346L34.6241 115.066V140.326L12.3049 127.595V102.346ZM11.1783 100.397V128.259L35.7395 142.264V114.413L11.167 100.408L11.1783 100.397Z" fill="#4122FF"/>
<path d="M60.3112 100.566L35.75 114.412V142.263V142.275L60.3224 128.428V100.566H60.3112Z" fill="url(#paint5_linear_430_158)"/>
<path d="M32.8661 139.638L32.7422 113.624" stroke="#4122FF" stroke-linecap="round" stroke-linejoin="round" stroke-dasharray="0.2 2"/>
<path d="M30.5346 138.343V138.354L30.4219 112.339V112.328" stroke="#4122FF" stroke-linecap="round" stroke-linejoin="round"/>
<path d="M28.2138 137.239L28.0898 111.224" stroke="#4122FF" stroke-linecap="round" stroke-linejoin="round" stroke-dasharray="0.2 2"/>
<path d="M25.8813 135.729L25.7686 109.726V109.714" stroke="#4122FF" stroke-linecap="round" stroke-linejoin="round"/>
<path d="M23.56 134.456L23.4473 108.441" stroke="#4122FF" stroke-linecap="round" stroke-linejoin="round" stroke-dasharray="0.2 2"/>
<path d="M21.2392 133.25L21.1152 107.247V107.236" stroke="#4122FF" stroke-linecap="round" stroke-linejoin="round"/>
<path d="M18.9076 132L18.7949 105.985" stroke="#4122FF" stroke-linecap="round" stroke-linejoin="round" stroke-dasharray="0.2 2"/>
<path d="M16.5859 130.501L16.4619 104.487H16.4732" stroke="#4122FF" stroke-linecap="round" stroke-linejoin="round"/>
<path d="M14.2656 129.217L14.1416 103.202" stroke="#4122FF" stroke-linecap="round" stroke-linejoin="round" stroke-dasharray="0.2 2"/>
<path d="M143.887 113.275L144.101 113.162L168.448 99.428L143.887 85.4236L119.314 99.2702L143.887 113.275Z" fill="url(#paint6_linear_430_158)"/>
<path d="M143.899 141.126V113.275L119.337 99.2703H119.326V127.121H119.337L143.899 141.126Z" fill="#4122FF"/>
<path d="M167.333 101.355V126.626L145.025 139.199V113.928L167.333 101.355ZM168.46 99.428L143.898 113.275V141.126L168.46 127.279V99.428Z" fill="#4122FF"/>
<path d="M147.211 138.005L147.324 112.587" stroke="#4122FF" stroke-linecap="round" stroke-linejoin="round" stroke-dasharray="0.2 2"/>
<path d="M149.487 136.743L149.6 111.325" stroke="#4122FF" stroke-linecap="round" stroke-linejoin="round"/>
<path d="M151.751 135.661L151.875 110.233" stroke="#4122FF" stroke-linecap="round" stroke-linejoin="round" stroke-dasharray="0.2 2"/>
<path d="M154.027 134.185L154.14 108.768" stroke="#4122FF" stroke-linecap="round" stroke-linejoin="round"/>
<path d="M156.303 132.935L156.415 107.517" stroke="#4122FF" stroke-linecap="round" stroke-linejoin="round" stroke-dasharray="0.2 2"/>
<path d="M158.567 131.763L158.691 106.346" stroke="#4122FF" stroke-linecap="round" stroke-linejoin="round"/>
<path d="M160.844 130.546L160.956 105.117" stroke="#4122FF" stroke-linecap="round" stroke-linejoin="round" stroke-dasharray="0.2 2"/>
<path d="M163.119 129.07L163.232 103.653" stroke="#4122FF" stroke-linecap="round" stroke-linejoin="round"/>
<path d="M165.384 127.82L165.508 102.402" stroke="#4122FF" stroke-linecap="round" stroke-linejoin="round" stroke-dasharray="0.2 2"/>
</g>
<defs>
<linearGradient id="paint0_linear_430_158" x1="83.0437" y1="165.305" x2="96.6371" y2="202.205" gradientUnits="userSpaceOnUse">
<stop offset="0.0520833" stop-color="#822DB8"/>
<stop offset="0.666667" stop-color="#CA446E"/>
<stop offset="0.973958" stop-color="#F19C55"/>
</linearGradient>
<linearGradient id="paint1_linear_430_158" x1="91.4378" y1="56.0098" x2="54.7574" y2="61.1255" gradientUnits="userSpaceOnUse">
<stop stop-color="#38A6E2"/>
<stop offset="0.494792" stop-color="#665BC8"/>
<stop offset="0.942708" stop-color="#8825B5"/>
</linearGradient>
<linearGradient id="paint2_linear_430_158" x1="76.4966" y1="69.9875" x2="79.8879" y2="97.5545" gradientUnits="userSpaceOnUse">
<stop offset="0.0520833" stop-color="#822DB8"/>
<stop offset="0.666667" stop-color="#CA446E"/>
<stop offset="0.973958" stop-color="#F19C55"/>
</linearGradient>
<linearGradient id="paint3_linear_430_158" x1="91.3764" y1="87.6932" x2="60.074" y2="101.091" gradientUnits="userSpaceOnUse">
<stop stop-color="#38A6E2"/>
<stop offset="0.494792" stop-color="#665BC8"/>
<stop offset="0.942708" stop-color="#8825B5"/>
</linearGradient>
<linearGradient id="paint4_linear_430_158" x1="63.6617" y1="91.5153" x2="35.639" y2="127.432" gradientUnits="userSpaceOnUse">
<stop stop-color="#38A6E2"/>
<stop offset="0.494792" stop-color="#665BC8"/>
<stop offset="0.942708" stop-color="#8825B5"/>
</linearGradient>
<linearGradient id="paint5_linear_430_158" x1="29.1775" y1="106.133" x2="42.7709" y2="143.033" gradientUnits="userSpaceOnUse">
<stop offset="0.0520833" stop-color="#822DB8"/>
<stop offset="0.666667" stop-color="#CA446E"/>
<stop offset="0.973958" stop-color="#F19C55"/>
</linearGradient>
<linearGradient id="paint6_linear_430_158" x1="106.172" y1="89.1408" x2="109.564" y2="116.708" gradientUnits="userSpaceOnUse">
<stop offset="0.0520833" stop-color="#822DB8"/>
<stop offset="0.666667" stop-color="#CA446E"/>
<stop offset="0.973958" stop-color="#F19C55"/>
</linearGradient>
<clipPath id="clip0_430_158">
<rect width="180" height="220" fill="white"/>
</clipPath>
</defs>
</svg>
